<?xml version="1.0" standalone="no"?>
<!DOCTYPE svg PUBLIC "-//W3C//DTD SVG 1.1//EN" "http://www.w3.org/Graphics/SVG/1.1/DTD/svg11.dtd" >
<svg xmlns="http://www.w3.org/2000/svg">
<metadata>Generated by IcoMoon</metadata>
<defs>
<font id="icomoon" horiz-adv-x="1024">
<font-face units-per-em="1024" ascent="960" descent="-64" />
<missing-glyph horiz-adv-x="1024" />
<glyph unicode="&#x20;" horiz-adv-x="512" d="" />
<glyph unicode="&#xe900;" glyph-name="attachment" d="M759.363 462.208l-248.092-248.072c-58.849-57.832-150.766-60.171-205.951-4.986s-52.847 147.101 4.987 205.95l-0.012 0.011 283.058 283.048c0.062 0.064 0.119 0.129 0.183 0.192 37.732 37.733 98.91 37.733 136.642 0.001 37.733-37.734 37.733-98.911 0.001-136.644-0.063-0.063-0.129-0.12-0.192-0.182l0.005-0.005-283.053-283.054c-18.774-18.771-49.883-18.105-69.481 1.495-19.599 19.597-20.266 50.709-1.493 69.479l186.395 186.394-23.88 23.88-186.385-186.404c-31.314-31.783-30.332-83.762 2.31-116.402 32.643-32.643 84.622-33.625 116.403-2.312l0.011-0.011 287.855 287.91c47.562 49.908 45.899 129.88-4.286 180.064-50.182 50.182-130.153 51.845-180.061 4.284l-0.029 0.028-287.866-287.899c-71.585-73.011-74.562-186.782-6.317-255.027s182.019-65.269 255.029 6.315l0.017-0.016 248.082 248.083-23.881 23.881z" />
<glyph unicode="&#xe901;" glyph-name="attachment2" d="M781.13 727.377h-553.617c-36.695 0-66.435-29.592-66.435-66.106v-374.599c0-36.492 31.954-62.719 68.65-62.719l549.191-0.002c36.671 0 68.649 26.226 68.649 62.719v374.6c-0.001 36.515-29.766 66.107-66.438 66.107zM816.151 296.38c0-23.615-20.692-44.424-44.425-44.424h-533.099c-23.733 0-44.425 20.808-44.425 44.424v355.4c0 23.615 20.693 44.426 44.425 44.426h533.1c23.734 0 44.426-20.811 44.426-44.426l-0.002-355.4zM663.47 502.344v0c-6.451 6.451-17.065 6.451-23.521 0l-162.191-162.191-98.806 98.662c-6.451 6.451-17.065 6.451-23.521 0v0c-6.451-6.451-6.451-17.065 0-23.521l110.423-110.423c3.297-3.297 7.598-4.874 11.761-4.874 4.301 0 8.607 1.577 11.761 4.874l173.952 173.952c6.595 6.456 6.595 17.070 0.143 23.521zM190.7 586.931h632.525v-33.121h-632.525v33.121zM288.425 640c0-12.725-10.315-23.040-23.040-23.040s-23.040 10.315-23.040 23.040c0 12.725 10.315 23.040 23.040 23.040s23.040-10.315 23.040-23.040zM363.52 640.855c0-12.725-10.315-23.040-23.040-23.040s-23.040 10.315-23.040 23.040c0 12.725 10.315 23.040 23.040 23.040s23.040-10.315 23.040-23.040zM437.76 642.56c0-12.725-10.315-23.040-23.040-23.040s-23.040 10.315-23.040 23.040c0 12.725 10.315 23.040 23.040 23.040s23.040-10.315 23.040-23.040z" />
<glyph unicode="&#xe902;" glyph-name="attention" d="M928.298 190.427c-5.418 32.673-17.691 66.248-34.566 94.57l-276.409 479.459c-21.154 36.693-58.708 60.414-100.456 63.452-7.337 0.536-14.831 0.548-22.175 0.039-42.002-2.91-79.841-26.787-101.22-63.871l-276.162-479.030c-17.886-29.804-29.93-65.578-33.924-100.774-4.098-36.112 0.576-68.265 13.163-90.533 12.302-21.764 32.51-34.246 55.442-34.246l709.628 0.109c25.37 2.153 45.914 16.154 57.849 39.424 14.982 29.212 13.072 65.828 8.831 91.401zM475.939 559.208c0 16.462 13.469 29.931 29.931 29.931h1.538c16.462 0 29.93-13.469 29.93-29.931v-220.368c0-16.462-13.469-29.931-29.93-29.931h-1.538c-16.462 0-29.931 13.469-29.931 29.931v220.368zM542.349 217.438c0-16.885-13.815-30.699-30.699-30.699h-10.025c-16.885 0-30.699 13.815-30.699 30.699v10.025c0 16.885 13.815 30.699 30.699 30.699h10.025c16.885 0 30.699-13.815 30.699-30.699v-10.025z" />
<glyph unicode="&#xe903;" glyph-name="attention2" d="M512.055 956.216c-281.35 0-509.426-228.078-509.426-509.427 0-281.351 228.077-509.425 509.426-509.425 281.352 0 509.425 228.074 509.425 509.425s-228.073 509.427-509.425 509.427zM561.811 709.186l-7.913-381.224h-85.263l-7.568 381.224h100.744zM553.421 201.459c-11.167-11.323-24.512-17.067-39.657-17.067-17.42 0-31.913 5.743-43.081 17.067-11.099 11.242-16.729 24.684-16.729 39.944 0 16.272 5.852 30.144 17.393 41.224 11.33 10.885 25.077 16.407 40.861 16.407 15.714 0 29.445-5.765 40.813-17.132s17.132-24.993 17.132-40.498c0-15.25-5.631-28.688-16.731-39.944z" />
<glyph unicode="&#xe904;" glyph-name="weixin" horiz-adv-x="1220" d="M1068.227 47.177l32.475-111.177-118.394 66.853c-43.154-11.166-86.504-22.333-129.463-22.333-205.385 0-367.080 144.677-367.080 322.853 0 177.883 161.694 322.901 367.080 322.901 193.926 0 366.592-145.018 366.592-322.901 0-100.352-64.561-189.196-151.211-256.195zM733.818 448.098c-21.504 0-43.154-22.333-43.154-44.52 0-22.479 21.65-44.52 43.154-44.52 32.622 0 54.028 22.040 54.028 44.52 0 22.187-21.406 44.52-54.028 44.52zM971.191 448.098c-21.309 0-42.862-22.333-42.862-44.52 0-22.479 21.553-44.52 42.862-44.52 32.378 0 54.028 22.040 54.028 44.52 0 22.187-21.65 44.52-54.028 44.52zM458.606 298.057c0-32.329 4.876-63.488 13.312-93.233-13.312-1.073-26.77-1.804-40.326-1.804-53.833 0-97.182 11.362-151.162 22.382l-150.869-78.019 43.154 133.851c-108.056 77.824-172.715 178.176-172.715 300.373 0 211.675 194.365 378.392 431.592 378.392 212.212 0 398.141-133.218 435.493-312.466-13.751 1.56-27.599 2.633-41.594 2.633-204.995 0-366.885-157.745-366.885-352.11zM291.401 770.804c-32.329 0-65-22.040-65-55.491 0-33.353 32.67-55.735 65-55.735s53.882 22.382 53.882 55.735c0 33.451-21.553 55.491-53.882 55.491zM593.432 770.804c-32.329 0-64.805-22.040-64.805-55.491 0-33.353 32.475-55.735 64.805-55.735 32.524 0 54.028 22.382 54.028 55.735 0 33.451-21.504 55.491-54.028 55.491z" />
<glyph unicode="&#xe905;" glyph-name="question" horiz-adv-x="1537" d="M768.001 848.286c-221.080 0-400.286-179.176-400.286-400.286s179.206-400.286 400.286-400.286 400.286 179.206 400.286 400.286-179.176 400.286-400.286 400.286zM768.001 103.014c-190.495 0-344.986 154.491-344.986 344.986s154.491 344.986 344.986 344.986 344.986-154.491 344.986-344.986-154.491-344.986-344.986-344.986zM734.706 283.816h60.899v-64.090h-60.899v64.090zM904.941 553.151c0-16.798-3.191-31.88-9.693-45.486s-20.32-30.615-41.513-50.905c-21.073-20.29-35.191-34.8-42.085-43.289-6.924-8.61-12.102-18.785-15.714-30.796-3.582-11.891-5.088-27.876-4.696-47.985h-55.21c0 23.39 1.866 42.205 5.69 56.203s9.422 26.31 17.009 36.696c7.496 10.506 21.103 25.799 40.79 46.209 19.688 20.32 32.301 35.101 37.991 44.312 5.69 9.182 8.489 22.879 8.489 41.091s-6.502 34.318-19.507 48.407c-13.005 13.998-31.819 21.012-56.504 21.012-55.721 0-83.507-33.084-83.507-99.191h-55.391c0.783 30.043 4.395 53.012 10.687 68.696s16.316 29.682 30.103 42.085c13.817 12.312 29.2 21.494 46.209 27.304 17.009 5.9 34.89 8.79 53.704 8.79 38.111 0 69.81-11.198 95.097-33.595 25.316-22.397 38.020-52.2 38.050-89.558z" />
<glyph unicode="&#xe906;" glyph-name="smile" d="M512.697 894.508c-246.992 0-447.185-200.21-447.185-447.185s200.192-447.185 447.185-447.185c246.956 0 447.185 200.211 447.185 447.185s-200.229 447.185-447.185 447.185zM512.697 37.407c-226.394 0-409.919 183.525-409.919 409.917 0 226.396 183.525 409.92 409.919 409.92s409.918-183.524 409.918-409.92c0-226.393-183.525-409.917-409.918-409.917zM423.027 535.829c0-30.879-25.019-55.898-55.898-55.898-30.878 0-55.898 25.019-55.898 55.898s25.020 55.898 55.898 55.898 55.898-25.020 55.898-55.898zM587.251 484.586c-0.826 0-1.66 0.055-2.5 0.168-10.2 1.368-17.359 10.745-15.991 20.944 0.249 1.856 2.752 18.627 13.811 35.632 10.808 16.615 31.701 36.423 69.871 36.423s59.064-19.807 69.87-36.424c11.060-17.003 13.562-33.775 13.811-35.632l-36.935-4.953 0.020-0.141c-0.017 0.108-1.723 11.038-8.753 21.335-8.521 12.48-20.956 18.547-38.013 18.547-17.472 0-30.109-6.37-38.632-19.476-6.507-10.005-8.103-20.168-8.116-20.267-1.255-9.357-9.255-16.157-18.443-16.157zM500.53 197.37c-47.766 0-94.402 17.169-130.709 49.763-7.657 6.876-8.293 18.655-1.418 26.313 6.876 7.656 18.655 8.292 26.312 1.418 43.469-39.024 105.375-50.684 161.562-30.433 57.041 20.56 96.55 69.568 105.683 131.1 1.511 10.178 10.979 17.208 21.167 15.694 10.179-1.511 17.205-10.987 15.694-21.167-11.182-75.327-59.746-135.397-129.909-160.685-22.378-8.067-45.511-12.004-68.382-12.004z" />
<glyph unicode="&#xe907;" glyph-name="star" d="M949.12 573.408c-4.864 15.008-17.856 25.952-33.44 28.192l-256.992 37.344-114.944 232.896c-6.976 14.144-21.376 23.104-37.152 23.104s-30.176-8.96-37.152-23.104l-114.944-232.896-257.024-37.344c-15.616-2.272-28.576-13.184-33.44-28.192s-0.8-31.456 10.496-42.464l185.984-181.28-43.904-255.968c-2.656-15.552 3.712-31.264 16.48-40.544s29.664-10.496 43.648-3.136l229.888 120.864 229.856-120.864c6.048-3.168 12.672-4.768 19.264-4.768 8.576 0 17.152 2.656 24.352 7.904 12.768 9.28 19.136 24.992 16.48 40.544l-43.904 255.968 185.984 181.28c11.264 11.008 15.328 27.456 10.464 42.464z" />
<glyph unicode="&#xe908;" glyph-name="online-resume" d="M796.49 701.777h-553.617c-36.695 0-66.435-29.592-66.435-66.106v-374.599c0-36.492 31.954-62.719 68.65-62.719l549.191-0.002c36.671 0 68.649 26.226 68.649 62.719v374.6c-0.001 36.515-29.766 66.107-66.438 66.107zM831.511 270.78c0-23.615-20.692-44.424-44.425-44.424h-533.099c-23.733 0-44.425 20.808-44.425 44.424v355.4c0 23.615 20.693 44.426 44.425 44.426h533.1c23.734 0 44.426-20.811 44.426-44.426l-0.002-355.4zM206.060 561.331h632.525v-33.121h-632.525v33.121zM303.785 614.4c0-12.725-10.315-23.040-23.040-23.040s-23.040 10.315-23.040 23.040c0 12.725 10.315 23.040 23.040 23.040s23.040-10.315 23.040-23.040zM378.88 615.255c0-12.725-10.315-23.040-23.040-23.040s-23.040 10.315-23.040 23.040c0 12.725 10.315 23.040 23.040 23.040s23.040-10.315 23.040-23.040zM453.12 616.96c0-12.725-10.315-23.040-23.040-23.040s-23.040 10.315-23.040 23.040c0 12.725 10.315 23.040 23.040 23.040s23.040-10.315 23.040-23.040zM732.16 436.48c0-9.897-8.023-17.92-17.92-17.92h-394.24c-9.897 0-17.92 8.023-17.92 17.92v0c0 9.897 8.023 17.92 17.92 17.92h394.24c9.897 0 17.92-8.023 17.92-17.92v0zM538.88 332.8c0-9.897-8.023-17.92-17.92-17.92h-199.68c-9.897 0-17.92 8.023-17.92 17.92v0c0 9.897 8.023 17.92 17.92 17.92h199.68c9.897 0 17.92-8.023 17.92-17.92v0z" />
<glyph unicode="&#xe909;" glyph-name="hollow-star" d="M257.423 24.753c-13.153 0-25.73 4.090-36.375 11.83-19.188 13.945-28.625 37.15-24.628 60.555l42.088 245.376-178.275 173.765c-16.99 16.558-23 40.868-15.683 63.443 7.315 22.573 26.463 38.723 49.973 42.145l246.373 35.798 110.18 223.241c10.498 21.29 31.773 34.52 55.518 34.52 23.743 0 45.018-13.23 55.523-34.528l110.175-223.233 246.336-35.798c23.125-3.325 42.755-19.868 49.975-42.145 7.315-22.555 1.325-46.858-15.63-63.425l-178.296-173.784 42.085-245.361c4-23.425-5.435-46.63-24.625-60.57-10.6-7.725-23.19-11.815-36.39-11.815-9.935 0-19.88 2.455-28.76 7.1l-220.361 115.87-220.361-115.85c-8.859-4.664-18.837-7.134-28.842-7.134zM506.594 874.465c-8.033 0-15.23-4.478-18.785-11.683l-119.713-242.558-267.678-38.893c-7.953-1.158-14.433-6.613-16.903-14.238-2.478-7.648-0.445-15.878 5.305-21.483l193.698-188.798-45.725-266.581c-1.353-7.93 1.84-15.795 8.335-20.52 6.345-4.605 15.108-5.24 22.068-1.575l239.431 125.88 239.386-125.88c6.965-3.64 15.84-2.95 22.025 1.565 6.515 4.735 9.71 12.6 8.35 20.545l-45.72 266.566 193.695 188.795c5.725 5.598 7.755 13.835 5.28 21.483-2.44 7.525-9.065 13.113-16.875 14.235l-267.676 38.898-119.711 242.552c-3.555 7.212-10.755 11.69-18.787 11.69z" />
<glyph unicode="&#xe90a;" glyph-name="investment" d="M640.341 482.884h-97.417v107.11h156.877c19.046 0 34.475 15.497 34.475 34.475s-15.428 34.475-34.475 34.475h-156.877v45.193c0 19.046-15.497 34.475-34.475 34.475s-34.543-15.497-34.543-34.475v-45.193h-98.372c-68.949 0-142.268-42.94-142.268-122.47 0-70.997 57.685-122.539 137.148-122.539h103.561v-107.11h-175.991c-19.046 0-34.475-15.497-34.475-34.475s15.497-34.475 34.475-34.475h175.991v-47.991c0-19.046 15.497-34.475 34.475-34.475s34.475 15.497 34.475 34.475v47.991h92.228c66.56 0 137.421 42.94 137.421 122.539 0 72.090-54.409 122.47-132.233 122.47zM302.217 536.474c0 39.322 43.827 53.521 73.318 53.521h98.441v-107.11h-103.561c-25.327 0-68.198 11.332-68.198 53.589zM703.625 360.414c0-39.253-40.96-53.589-68.471-53.589h-92.228v107.11h97.417c30.583 0 63.283-14.063 63.283-53.521zM510.976 958.020c-281.737 0-510.976-229.239-510.976-511.044s229.239-510.976 510.976-510.976 510.976 229.239 510.976 510.976-229.171 511.044-510.976 511.044zM951.637 446.976c0-243.029-197.7-440.73-440.661-440.73s-440.661 197.7-440.661 440.73c0 242.961 197.7 440.661 440.661 440.661s440.661-197.632 440.661-440.661z" />
<glyph unicode="&#xe90b;" glyph-name="trend" d="M218.385 255.010l-46.148 50.244 348.843 320.102 185.071-192.307 282.692 323.174 51.337-44.988-331.639-379.085-190.396 197.837zM54.545 957.884h64.034v-1021.884h-64.034v1021.884zM1.229 56.764h1021.884v-68.267h-1021.884v68.267z" />
<glyph unicode="&#xe90c;" glyph-name="fourSquare" d="M341.333 891.733c37.615 0 68.267-30.652 68.267-68.267v-204.8c0-37.615-30.652-68.267-68.267-68.267h-204.8c-37.615 0-68.267 30.652-68.267 68.267v204.8c0 37.615 30.652 68.267 68.267 68.267h204.8zM341.333 960h-204.8c-75.435 0-136.533-61.099-136.533-136.533v-204.8c0-75.435 61.099-136.533 136.533-136.533h204.8c75.435 0 136.533 61.099 136.533 136.533v204.8c0 75.435-61.099 136.533-136.533 136.533v0zM887.467 891.733c37.615 0 68.267-30.652 68.267-68.267v-204.8c0-37.615-30.652-68.267-68.267-68.267h-204.8c-37.615 0-68.267 30.652-68.267 68.267v204.8c0 37.615 30.652 68.267 68.267 68.267h204.8zM887.467 960h-204.8c-75.435 0-136.533-61.099-136.533-136.533v-204.8c0-75.435 61.099-136.533 136.533-136.533h204.8c75.435 0 136.533 61.099 136.533 136.533v204.8c0 75.435-61.099 136.533-136.533 136.533v0zM341.333 345.6c37.615 0 68.267-30.652 68.267-68.267v-204.8c0-37.615-30.652-68.267-68.267-68.267h-204.8c-37.615 0-68.267 30.652-68.267 68.267v204.8c0 37.615 30.652 68.267 68.267 68.267h204.8zM341.333 413.867h-204.8c-75.435 0-136.533-61.099-136.533-136.533v-204.8c0-75.366 61.099-136.533 136.533-136.533h204.8c75.435 0 136.533 61.167 136.533 136.533v204.8c0 75.435-61.099 136.533-136.533 136.533v0zM887.467 345.6c37.615 0 68.267-30.652 68.267-68.267v-204.8c0-37.615-30.652-68.267-68.267-68.267h-204.8c-37.615 0-68.267 30.652-68.267 68.267v204.8c0 37.615 30.652 68.267 68.267 68.267h204.8zM887.467 413.867h-204.8c-75.435 0-136.533-61.099-136.533-136.533v-204.8c0-75.366 61.099-136.533 136.533-136.533h204.8c75.435 0 136.533 61.167 136.533 136.533v204.8c0 75.435-61.099 136.533-136.533 136.533v0z" />
<glyph unicode="&#xe90d;" glyph-name="home" d="M697.958-3.994h-68.267v273.067c0 56.457-45.943 102.4-102.4 102.4h-68.267c-56.457 0-102.4-45.943-102.4-102.4v-273.067h-68.267v273.067c0 94.14 76.595 170.667 170.667 170.667h68.267c94.14 0 170.667-76.527 170.667-170.667v-273.067zM732.092-65.843h-477.867c-94.071 0-170.667 76.527-170.667 170.667v614.4h68.267v-614.4c0-56.457 45.943-102.4 102.4-102.4h477.867c56.457 0 102.4 45.943 102.4 102.4v614.4h68.267v-614.4c0-94.14-76.527-170.667-170.667-170.667zM986.249 581.939l-415.471 275.456c-49.22 47.309-111.411 43.008-150.050 4.369l-420.727-279.825-37.751 56.934 415.403 275.456c27.034 27.921 69.905 45.67 115.507 45.67s88.474-17.749 120.627-49.971l410.214-271.155-37.751-56.934z" />
<glyph unicode="&#xe90e;" glyph-name="figure" d="M1022.976-64h-1018.88l-4.915 28.331c-11.674 67.447-1.775 123.426 29.559 166.366 43.076 59.051 110.865 69.222 113.732 69.632l141.039 47.65c83.422 32.085 92.706 103.356 92.433 135.031-28.262 21.572-55.433 65.399-75.776 104.516-43.622 34.133-65.877 69.7-66.219 105.54-0.205 23.962 9.353 41.779 18.022 52.975v68.471c-9.079 159.198 96.324 214.084 157.286 221.594 121.037 42.189 204.8 38.025 249.446-10.513 12.288-13.38 19.524-27.989 23.689-41.097 23.006-0.819 43.213-10.581 58.505-28.467 47.718-55.569 34.748-181.862 29.355-221.252 19.251-78.37-22.528-128.956-63.966-149.982-18.637-51.814-64.171-100.83-85.060-121.378-2.867-103.561 158.652-130.116 160.358-130.389 37.956-6.212 114.347-39.663 122.948-43.486 125.747-52.292 121.515-142.677 118.374-164.796v-88.747zM63.078 4.267h891.631l0.887 30.652c0.887 5.052 7.441 56.32-77.961 91.819-30.037 13.244-84.787 35.226-106.701 38.775-83.217 13.039-235.725 75.503-216.269 218.18l1.638 12.288 9.079 8.329c18.978 17.271 70.11 71.27 79.599 113.323l4.301 19.183 18.842 5.803c12.083 4.096 51.337 22.187 34.475 80.691l-2.048 7.168 1.161 7.441c8.329 54.409 10.035 147.251-12.629 173.67-5.666 6.554-12.356 5.803-23.825 1.638l-49.903-17.886 4.437 52.907c0 0 0.683 18.5-11.81 31.539-13.449 14.268-37.888 17.203-56.047 17.203-32.427 0-74.001-8.943-123.699-26.556l-8.397-1.843c-10.786-1.092-107.383-15.223-99.669-152.098l0.068-100.557-13.244-10.172c0.068 0-5.12-4.915-4.779-12.698 0.273-6.895 5.325-26.010 45.124-55.637l6.417-4.779 3.618-7.1c20.617-40.482 49.63-83.081 60.894-89.361l24.030-4.301 0.137-23.006c8.533-56.525-8.806-176.265-135.851-225.143l-148.548-49.63c-6.212-1.434-48.947-8.465-74.547-44.237-15.701-21.777-22.46-50.517-20.412-85.606z" />
<glyph unicode="&#xe90f;" glyph-name="valid" horiz-adv-x="1097" d="M950.857 886.857l-438.857-950.857-475.429 950.857h-36.571v73.143h438.857l219.429-438.857 219.429 438.857h219.429v-73.143h-146.286z" />
<glyph unicode="&#xe910;" glyph-name="address" d="M990.413 188.723c-18.842 17.545-45.397 33.519-78.848 47.65-48.879 20.617-110.319 36.659-182.818 47.787 36.523 45.056 66.56 89.020 89.156 130.731 36.523 67.243 55.023 130.458 55.023 187.733 0 52.292-9.489 101.717-28.194 146.773-18.159 43.622-44.237 82.057-77.687 114.347-66.082 63.829-156.331 98.987-254.157 98.987-98.577 0-188.757-34.202-253.952-96.256-33.587-31.881-59.802-70.383-77.824-114.278-18.705-45.397-28.194-95.642-28.194-149.504 0-1.297 0.205-2.731 0.41-4.096 0.137-0.956 0.341-1.98 0.341-2.867 0.273-16.179 2.321-33.792 6.281-53.862 0.205-0.887 0.273-1.707 0.273-2.526 0.068-1.161 0.137-2.321 0.341-3.345l0.273-1.365c0.887-3.755 1.98-7.578 3.072-11.469l1.229-4.301c1.707-6.417 3.618-12.902 5.803-19.729l1.161-3.55c0.751-2.253 1.434-4.437 2.458-7.236 0.41-1.229 0.956-2.389 1.434-3.618 0.41-1.024 0.819-1.911 1.161-2.867 9.694-26.214 19.661-48.401 31.266-69.837 22.118-40.755 51.473-83.968 87.245-128.41-72.158-11.127-133.188-26.965-181.453-47.309-33.519-14.131-60.075-30.174-78.848-47.65-23.689-22.050-35.703-46.558-35.703-72.772 0-39.799 28.535-96.188 164.523-138.513 93.525-29.218 217.361-45.261 348.706-45.261 131.413 0 255.249 16.111 348.706 45.329 135.987 42.325 164.523 98.714 164.523 138.513 0 26.146-11.947 50.722-35.703 72.772zM512.887 161.212c-30.174 26.283-75.025 67.789-121.31 118.989l-0.273 0.273c-1.092 1.297-2.526 2.116-3.755 2.867-0.546 0.41-1.229 0.751-1.434 0.887-63.078 70.724-108.681 137.83-135.578 199.748 0 0.546-0.068 1.229-0.41 2.048l-2.048 5.12c-0.956 2.389-2.116 5.257-3.277 8.124-2.389 5.871-4.71 11.742-5.461 13.517-1.707 4.779-3.277 9.489-4.71 14.268-0.137 0.41-0.205 0.819-0.273 1.161l-0.341 1.229c-3.277 10.854-5.939 21.777-7.987 33.382-2.321 14.541-3.413 26.283-3.413 37.41l-0.068 2.048-0.341 0.137c0 0.137 0 0.205 0 0.273 0 171.281 119.535 290.816 290.748 290.816 168.482 0 290.748-122.334 290.748-290.816 0-173.739-220.16-379.836-290.816-441.481zM351.3 221.559c73.933-79.872 139.332-132.233 139.947-132.642 6.076-4.847 13.79-7.578 21.641-7.578s15.497 2.731 21.641 7.578c6.895 5.53 69.291 56.32 139.878 132.642 83.422-9.626 157.969-26.965 210.193-49.015 57.071-24.030 72.294-46.831 72.294-56.593 0-12.629-24.166-43.895-115.849-72.431-87.108-27.17-203.639-42.121-328.158-42.121s-241.050 14.95-328.158 42.121c-91.682 28.535-115.849 59.87-115.849 72.431 0 9.694 15.223 32.563 72.226 56.593 52.224 22.050 126.771 39.39 210.193 49.015zM512.887 761.139c-87.381 0-158.447-71.066-158.447-158.447s71.066-158.447 158.447-158.447c87.381 0 158.447 71.134 158.447 158.447s-71.066 158.447-158.447 158.447zM512.887 513.536c-49.152 0-89.156 40.004-89.156 89.156s40.004 89.156 89.156 89.156c49.152 0 89.156-40.004 89.156-89.156s-40.004-89.156-89.156-89.156z" />
<glyph unicode="&#xe911;" glyph-name="close2" d="M12.8-54.4v0c-6.4 6.4-6.4 16 0 22.4l972.8 972.8c6.4 6.4 16 6.4 22.4 0v0c6.4-6.4 6.4-16 0-22.4l-969.6-972.8c-6.4-6.4-19.2-6.4-25.6 0zM1011.2-54.4v0c6.4 6.4 6.4 16 0 22.4l-972.8 972.8c-6.4 6.4-19.2 6.4-25.6 0v0c-6.4-6.4-6.4-16 0-22.4l972.8-972.8c6.4-6.4 19.2-6.4 25.6 0z" />
<glyph unicode="&#xe912;" glyph-name="close" d="M469.87 448l-455.826 455.826 42.13 42.13 455.826-455.826 455.826 455.826 42.13-42.13-455.826-455.826 455.826-455.826-42.13-42.13-455.826 455.826-455.826-455.826-42.13 42.13 455.826 455.826z" />
<glyph unicode="&#xe913;" glyph-name="doller" d="M510.976 958.020c-281.737 0-510.976-229.239-510.976-511.044s229.239-510.976 510.976-510.976c281.737 0 510.976 229.239 510.976 510.976s-229.171 511.044-510.976 511.044zM510.976 6.246c-242.961 0-440.661 197.7-440.661 440.73 0 242.961 197.7 440.661 440.661 440.661s440.661-197.632 440.661-440.661-197.7-440.73-440.661-440.73zM575.761 484.796h-30.72v0.341h-72.567v-0.341h-37.205c-26.692 0-71.817 11.947-71.817 56.457 0 41.438 46.148 56.388 77.21 56.388h31.744v-0.137l165.956 0.068c20.070 0 36.318 16.316 36.318 36.318s-16.247 36.318-36.318 36.318h-93.321v47.582c0 20.070-16.316 36.318-36.318 36.318s-36.386-16.316-36.386-36.318v-47.582h-31.676c-72.567 0-149.777-45.193-149.777-128.956 0-74.752 60.757-129.024 144.384-129.024h37.137v-0.068h103.356c32.222 0 66.628-14.814 66.628-56.388 0-41.301-43.145-56.457-72.090-56.457h-25.259v0.478h-72.567v-0.41h-113.459c-20.070 0-36.318-16.316-36.318-36.318s16.316-36.318 36.318-36.318h113.459v-50.517c0-20.070 16.316-36.318 36.318-36.318s36.318 16.316 36.318 36.318v50.517h25.259c70.11 0 144.725 45.193 144.725 129.024-0.137 75.981-57.412 129.024-139.332 129.024z" />
</font>
</defs>
</svg>
